<svg id="Camada_1" data-name="Camada 1" xmlns="http://www.w3.org/2000/svg" viewBox="0 0 1000 1000"><rect width="1000" height="1000" rx="103.74" style="fill:#fff"/><polygon points="562.41 556.4 559.09 556.4 559.09 422.27 657.84 379.43 696.06 306.8 696.06 253.73 636.25 197.04 638.53 194.64 699.37 252.3 699.37 307.62 699.18 307.98 660.23 382 562.41 424.44 562.41 556.4" style="fill:#f49719;stroke:#f49719;stroke-linejoin:round;stroke-width:13px"/><circle cx="560.75" cy="555.99" r="7.22" style="fill:#f49719;stroke:#f49719;stroke-linejoin:round;stroke-width:13px"/><path d="M568.94,556a8.19,8.19,0,1,0-8.19,8.19,8.19,8.19,0,0,0,8.19-8.19Zm-14.45,0a6.27,6.27,0,1,1,6.26,6.27,6.27,6.27,0,0,1-6.26-6.27Z" style="fill:#f49719;stroke:#f49719;stroke-linejoin:round;stroke-width:13px"/><path d="M642.66,190.88a7.23,7.23,0,1,0,.27,10.21A7.23,7.23,0,0,0,642.66,190.88Z" style="fill:#f49719;stroke:#f49719;stroke-linejoin:round;stroke-width:13px"/><path d="M643.32,190.18a8.18,8.18,0,1,1-11.57.31,8.2,8.2,0,0,1,11.57-.31C646.59,193.29,640,187.08,643.32,190.18Zm-9.94,10.49a6.26,6.26,0,1,0-.24-8.86,6.26,6.26,0,0,0,.24,8.86Z" style="fill:#f49719;stroke:#f49719;stroke-linejoin:round;stroke-width:13px"/><rect x="605.02" y="444.59" width="3.32" height="70.04" style="fill:#f49719;stroke:#f49719;stroke-linejoin:round;stroke-width:13px"/><path d="M613.9,514.22a7.23,7.23,0,1,1-7.23-7.22A7.23,7.23,0,0,1,613.9,514.22Z" style="fill:#f49719;stroke:#f49719;stroke-linejoin:round;stroke-width:13px"/><path d="M614.86,514.22a8.19,8.19,0,1,0-8.19,8.19,8.19,8.19,0,0,0,8.19-8.19Zm-14.45,0a6.27,6.27,0,1,1,6.26,6.27,6.27,6.27,0,0,1-6.26-6.27Z" style="fill:#f49719;stroke:#f49719;stroke-linejoin:round;stroke-width:13px"/><path d="M613.9,445a7.23,7.23,0,1,0-7.23,7.23A7.23,7.23,0,0,0,613.9,445Z" style="fill:#f49719;stroke:#f49719;stroke-linejoin:round;stroke-width:13px"/><path d="M614.86,445a8.19,8.19,0,1,1-8.19-8.18,8.19,8.19,0,0,1,8.19,8.18Zm-14.45,0a6.27,6.27,0,1,0,6.26-6.26,6.27,6.27,0,0,0-6.26,6.26Z" style="fill:#f49719;stroke:#f49719;stroke-linejoin:round;stroke-width:13px"/><polygon points="674.36 184.59 671.3 145.14 622.24 117.84 549.41 117.84 549.41 114.53 623.1 114.53 674.47 143.11 677.66 184.33 674.36 184.59" style="fill:#f49719;stroke:#f49719;stroke-linejoin:round;stroke-width:13px"/><path d="M683.18,183.5a7.22,7.22,0,1,1-7.76-6.65A7.22,7.22,0,0,1,683.18,183.5Z" style="fill:#f49719;stroke:#f49719;stroke-linejoin:round;stroke-width:13px"/><path d="M684.14,183.42a8.18,8.18,0,1,0-7.53,8.79,8.19,8.19,0,0,0,7.53-8.79Zm-14.4,1.12a6.26,6.26,0,1,1,6.72,5.76,6.26,6.26,0,0,1-6.72-5.76C669.47,181.09,670,188,669.74,184.54Z" style="fill:#f49719;stroke:#f49719;stroke-linejoin:round;stroke-width:13px"/><path d="M549.82,109a7.23,7.23,0,1,0,7.22,7.22A7.23,7.23,0,0,0,549.82,109Z" style="fill:#f49719;stroke:#f49719;stroke-linejoin:round;stroke-width:13px"/><path d="M549.82,108a8.19,8.19,0,1,1-8.19,8.18,8.19,8.19,0,0,1,8.19-8.18Zm0,14.45a6.27,6.27,0,1,0-6.27-6.27,6.27,6.27,0,0,0,6.27,6.27Z" style="fill:#f49719;stroke:#f49719;stroke-linejoin:round;stroke-width:13px"/><polygon points="496 493.59 494.33 379.96 436.33 379.01 391.36 337.78 278.35 337.78 246.86 317.58 246.4 240.75 301.49 201.66 303.41 204.36 249.73 242.46 250.16 315.76 279.33 334.47 392.65 334.47 437.64 375.72 497.6 376.7 499.32 493.54 496 493.59" style="fill:#f49719;stroke:#f49719;stroke-linejoin:round;stroke-width:13px"/><path d="M297.94,197.36a7.22,7.22,0,1,1-1.71,10.07A7.22,7.22,0,0,1,297.94,197.36Z" style="fill:#f49719;stroke:#f49719;stroke-linejoin:round;stroke-width:13px"/><path d="M297.38,196.57a8.19,8.19,0,1,0,11.42,1.94,8.2,8.2,0,0,0-11.42-1.94Zm8.37,11.79a6.27,6.27,0,1,1,1.48-8.74,6.28,6.28,0,0,1-1.48,8.74Z" style="fill:#f49719;stroke:#f49719;stroke-linejoin:round;stroke-width:13px"/><path d="M490.43,493.26a7.23,7.23,0,1,0,7.12-7.33A7.23,7.23,0,0,0,490.43,493.26Z" style="fill:#f49719;stroke:#f49719;stroke-linejoin:round;stroke-width:13px"/><path d="M489.47,493.28a8.19,8.19,0,1,1,8.3,8.06,8.19,8.19,0,0,1-8.3-8.06Zm14.45-.22a6.27,6.27,0,1,0-6.17,6.36,6.27,6.27,0,0,0,6.17-6.36Z" style="fill:#f49719;stroke:#f49719;stroke-linejoin:round;stroke-width:13px"/><polygon points="461.36 332.23 419.16 285.07 307.01 286.01 306.98 282.69 420.63 281.74 463.83 330.02 461.36 332.23" style="fill:#f49719;stroke:#f49719;stroke-linejoin:round;stroke-width:13px"/><path d="M307.46,291.57a7.23,7.23,0,1,1,7.17-7.28A7.22,7.22,0,0,1,307.46,291.57Z" style="fill:#f49719;stroke:#f49719;stroke-linejoin:round;stroke-width:13px"/><path d="M307.47,292.53a8.19,8.19,0,1,0-8.25-8.11,8.2,8.2,0,0,0,8.25,8.11Zm-.12-14.45a6.27,6.27,0,1,1-6.21,6.32,6.28,6.28,0,0,1,6.21-6.32Z" style="fill:#f49719;stroke:#f49719;stroke-linejoin:round;stroke-width:13px"/><path d="M456.94,335.64a7.22,7.22,0,1,0,.57-10.2A7.23,7.23,0,0,0,456.94,335.64Z" style="fill:#f49719;stroke:#f49719;stroke-linejoin:round;stroke-width:13px"/><path d="M456.22,336.28a8.18,8.18,0,1,1,11.56.64,8.2,8.2,0,0,1-11.56-.64C453.21,332.92,459.23,339.65,456.22,336.28ZM467,326.65a6.26,6.26,0,1,0-.49,8.84,6.25,6.25,0,0,0,.49-8.84C464.69,324.07,469.3,329.22,467,326.65Z" style="fill:#f49719;stroke:#f49719;stroke-linejoin:round;stroke-width:13px"/><polygon points="523.23 347.16 519.91 347.16 519.91 293.9 470.45 225.24 392.35 225.24 392.35 221.92 472.14 221.92 523.23 292.83 523.23 347.16" style="fill:#f49719;stroke:#f49719;stroke-linejoin:round;stroke-width:13px"/><path d="M392.76,230.81a7.23,7.23,0,1,1,7.23-7.23A7.23,7.23,0,0,1,392.76,230.81Z" style="fill:#f49719;stroke:#f49719;stroke-linejoin:round;stroke-width:13px"/><path d="M392.76,231.77a8.19,8.19,0,1,0-8.18-8.19,8.2,8.2,0,0,0,8.18,8.19Zm0-14.45a6.26,6.26,0,1,1-6.26,6.26,6.27,6.27,0,0,1,6.26-6.26Z" style="fill:#f49719;stroke:#f49719;stroke-linejoin:round;stroke-width:13px"/><circle cx="521.57" cy="346.75" r="7.22" style="fill:#f49719;stroke:#f49719;stroke-linejoin:round;stroke-width:13px"/><path d="M513.39,346.75a8.19,8.19,0,1,1,8.18,8.19,8.19,8.19,0,0,1-8.18-8.19Zm14.44,0a6.26,6.26,0,1,0-6.26,6.27,6.26,6.26,0,0,0,6.26-6.27Z" style="fill:#f49719;stroke:#f49719;stroke-linejoin:round;stroke-width:13px"/><polygon points="562.34 263.37 489.17 164.99 396.44 163.56 346.27 208.94 344.05 206.48 395.18 160.23 490.86 161.7 565 261.39 562.34 263.37" style="fill:#f49719;stroke:#f49719;stroke-linejoin:round;stroke-width:13px"/><path d="M350.31,212.8a7.23,7.23,0,1,1,.51-10.21A7.23,7.23,0,0,1,350.31,212.8Z" style="fill:#f49719;stroke:#f49719;stroke-linejoin:round;stroke-width:13px"/><path d="M351,213.51a8.18,8.18,0,1,0-11.56-.58,8.21,8.21,0,0,0,11.56.58Zm-9.7-10.72a6.27,6.27,0,1,1-.44,8.85,6.26,6.26,0,0,1,.44-8.85Z" style="fill:#f49719;stroke:#f49719;stroke-linejoin:round;stroke-width:13px"/><path d="M557.63,266.36a7.22,7.22,0,1,0,1.48-10.1A7.23,7.23,0,0,0,557.63,266.36Z" style="fill:#f49719;stroke:#f49719;stroke-linejoin:round;stroke-width:13px"/><path d="M556.86,266.94a8.18,8.18,0,1,1,11.45,1.68,8.2,8.2,0,0,1-11.45-1.68C554.16,263.32,559.55,270.56,556.86,266.94Zm11.59-8.63a6.26,6.26,0,1,0-1.29,8.77,6.26,6.26,0,0,0,1.29-8.77C566.39,255.54,570.51,261.09,568.45,258.31Z" style="fill:#f49719;stroke:#f49719;stroke-linejoin:round;stroke-width:13px"/><polygon points="571.93 357.23 570.32 354.33 615.22 329.32 615.73 238.36 591.31 218.27 593.41 215.71 619.06 236.8 618.52 331.28 571.93 357.23" style="fill:#f49719;stroke:#f49719;stroke-linejoin:round;stroke-width:13px"/><path d="M588.09,222.83a7.23,7.23,0,1,1,10.17-1A7.22,7.22,0,0,1,588.09,222.83Z" style="fill:#f49719;stroke:#f49719;stroke-linejoin:round;stroke-width:13px"/><path d="M587.48,223.57a8.19,8.19,0,1,0-1.12-11.52,8.21,8.21,0,0,0,1.12,11.52Zm9.18-11.16a6.26,6.26,0,1,1-8.82.86,6.28,6.28,0,0,1,8.82-.86Z" style="fill:#f49719;stroke:#f49719;stroke-linejoin:round;stroke-width:13px"/><path d="M568,349.27a7.22,7.22,0,1,0,9.83,2.79A7.23,7.23,0,0,0,568,349.27Z" style="fill:#f49719;stroke:#f49719;stroke-linejoin:round;stroke-width:13px"/><path d="M567.5,348.43a8.19,8.19,0,1,1-3.17,11.13,8.19,8.19,0,0,1,3.17-11.13Zm7,12.62a6.26,6.26,0,1,0-8.52-2.42,6.27,6.27,0,0,0,8.52,2.42Z" style="fill:#f49719;stroke:#f49719;stroke-linejoin:round;stroke-width:13px"/><polygon points="369.83 138.09 368.11 135.26 411.83 108.66 469.16 110.45 508.09 131.62 506.51 134.54 468.27 113.74 412.71 112 369.83 138.09" style="fill:#f49719;stroke:#f49719;stroke-linejoin:round;stroke-width:13px"/><path d="M373.07,142.63a7.22,7.22,0,1,1,2.42-9.92A7.21,7.21,0,0,1,373.07,142.63Z" style="fill:#f49719;stroke:#f49719;stroke-linejoin:round;stroke-width:13px"/><path d="M373.57,143.45a8.18,8.18,0,1,0-11.24-2.74,8.18,8.18,0,0,0,11.24,2.74C377.43,141.11,369.72,145.8,373.57,143.45Zm-7.51-12.34a6.26,6.26,0,1,1-2.09,8.61,6.27,6.27,0,0,1,2.09-8.61Z" style="fill:#f49719;stroke:#f49719;stroke-linejoin:round;stroke-width:13px"/><path d="M503.49,139.23a7.22,7.22,0,1,0-2.89-9.8A7.23,7.23,0,0,0,503.49,139.23Z" style="fill:#f49719;stroke:#f49719;stroke-linejoin:round;stroke-width:13px"/><path d="M503,140.08a8.19,8.19,0,1,1,11.1-3.28,8.21,8.21,0,0,1-11.1,3.28C499.07,137.92,507,142.23,503,140.08Zm6.91-12.7a6.27,6.27,0,1,0,2.5,8.5,6.28,6.28,0,0,0-2.5-8.5Z" style="fill:#f49719;stroke:#f49719;stroke-linejoin:round;stroke-width:13px"/><rect x="649.35" y="257.31" width="3.32" height="56.33" style="fill:#f49719;stroke:#f49719;stroke-linejoin:round;stroke-width:13px"/><path d="M643.78,257.72a7.23,7.23,0,1,1,7.22,7.22A7.23,7.23,0,0,1,643.78,257.72Z" style="fill:#f49719;stroke:#f49719;stroke-linejoin:round;stroke-width:13px"/><path d="M642.82,257.72a8.19,8.19,0,1,0,8.18-8.19,8.19,8.19,0,0,0-8.18,8.19Zm14.45,0a6.27,6.27,0,1,1-6.27-6.27,6.27,6.27,0,0,1,6.27,6.27Z" style="fill:#f49719;stroke:#f49719;stroke-linejoin:round;stroke-width:13px"/><path d="M643.78,313.23A7.23,7.23,0,1,0,651,306,7.22,7.22,0,0,0,643.78,313.23Z" style="fill:#f49719;stroke:#f49719;stroke-linejoin:round;stroke-width:13px"/><path d="M642.82,313.23a8.19,8.19,0,1,1,8.18,8.19,8.2,8.2,0,0,1-8.18-8.19Zm14.45,0a6.27,6.27,0,1,0-6.27,6.26,6.27,6.27,0,0,0,6.27-6.26Z" style="fill:#f49719;stroke:#f49719;stroke-linejoin:round;stroke-width:13px"/><path d="M263.87,661.58q-70.29,0-102.2-25.79t-31.91-91.88V466.54q0-59.31-49-59.31V347.91q49,0,49-61.57V214.45q0-66.4,31.59-93.33T263.87,94.2v60.29q-51.59,0-51.58,56.09v68.66q0,77.37-49.65,97.68v1.29q49.63,20,49.65,99v66.08q0,31.59,12.08,44.81t39.5,13.22Z" style="fill:#1d1d1b"/><path d="M919.24,407.23q-49.32,0-49.32,60.28V542q0,68-31.43,93.81t-102,25.79V601.29q27.07,0,39.33-13.06T788,543.91V475.25q0-77.06,49.32-96.39v-1.29Q788,357.26,788,276.66V210.58q0-56.1-51.58-56.09V94.2q70.27,0,101.87,26.92t31.59,92V287q0,60.93,49.32,60.93Z" style="fill:#1d1d1b"/><rect x="326.21" y="601.29" width="344.02" height="60.28" style="fill:#1d1d1b"/><path d="M86.05,688.07h21.29q20.61,0,27.88,1.89t11.05,6.22a19.76,19.76,0,0,1,4.73,9.63q.94,5.31.95,20.85V765q0,14.73-1.39,19.7a14.78,14.78,0,0,1-4.83,7.77,20.08,20.08,0,0,1-8.52,3.92q-5.07,1.13-15.27,1.12H86.05Zm28.45,18.72v72c4.1,0,6.63-.81,7.58-2.46s1.41-6.12,1.41-13.42V720.38a57.83,57.83,0,0,0-.47-9.53,4.57,4.57,0,0,0-2.16-3.08Q119.17,706.8,114.5,706.79Z" style="fill:#f49719"/><path d="M191,688.07V797.5H162.56V688.07Z" style="fill:#f49719"/><path d="M267.73,728.36H239.27v-9.94q0-9.39-.81-11.76c-.54-1.58-1.83-2.36-3.85-2.36a3.56,3.56,0,0,0-3.58,2c-.64,1.35-.95,4.82-.95,10.41v52.52c0,4.91.31,8.14.95,9.69a3.67,3.67,0,0,0,3.78,2.34,4.17,4.17,0,0,0,4.22-2.64q1.13-2.64,1.12-10.27v-13H234.4V738.76h33.33V797.5H249.84l-2.63-7.84a19.84,19.84,0,0,1-7.34,7.6,20.66,20.66,0,0,1-10.45,2.53A27.25,27.25,0,0,1,216,796.32a25.89,25.89,0,0,1-9.51-8.62,27.37,27.37,0,0,1-4.05-10.78,127.54,127.54,0,0,1-.82-16.93V727.48q0-15.69,1.69-22.78t9.7-13q8-5.91,20.72-5.92,12.5,0,20.75,5.14t10.74,12.2q2.5,7.07,2.51,20.51Z" style="fill:#f49719"/><path d="M307.2,688.07V797.5H278.74V688.07Z" style="fill:#f49719"/><path d="M375.93,688.07V710H359V797.5H330.58V710H313.75v-21.9Z" style="fill:#f49719"/><path d="M426.06,688.07,442.34,797.5H413.26l-1.53-19.67H401.55l-1.71,19.67H370.42l14.52-109.43ZM411,758.43q-2.16-18.58-4.33-46-4.35,31.42-5.46,46Z" style="fill:#f49719"/><path d="M475.62,688.07V775.6h17.31v21.9H447.17V688.07Z" style="fill:#f49719"/><path d="M619.81,808.34c0-19.66,0-38.07.56-47.2h-.28c-3.6,10.51-25.33,64.91-37.1,94.53h-3.45c-11.91-31.83-32-82.49-36.13-94.25h-.14c.42,7.75.42,34.32.42,50.79v43.46h-2.63V759.06h4.15c14.95,38.62,33.08,85.12,36.12,93.71h.14c2.63-7.62,23.4-59.11,37-93.71h4.15v96.61h-2.77Z" style="fill:#1d1d1b"/><path d="M652.06,759.06v96.61H649.3V759.06Z" style="fill:#1d1d1b"/><path d="M678.78,855.67V759.06h4.15c52.18,82.35,55.64,88.17,59.24,93.71h.14c-.41-3.74-.41-29.35-.41-45V759.06h2.76v96.61h-4c-52.74-83.59-56.06-89.14-59.38-94.4h-.14c.69,12.88.42,27,.42,44.85v49.55Z" style="fill:#1d1d1b"/><path d="M771.38,759.06h26.43c27.27,0,42.64,16.89,42.64,45.82,0,29.61-12.74,50.79-43.19,50.79H771.38Zm2.77,94.12h22.56c26.71,0,40.83-17.3,40.83-48.17,0-27.68-14.53-43.46-40.42-43.46h-23Z" style="fill:#1d1d1b"/><path d="M857.2,831.31c2.07,16.34,13.56,23.12,27.4,23.12,16.06,0,26.44-8.31,26.44-22.7,0-13-6.5-19.94-26.3-25.75-18.54-5.4-26.85-11.48-26.85-25.05,0-14.95,11.07-23.25,26.58-23.25,17.85,0,26.29,10.52,27.68,23.53h-2.77c-1.94-14.4-12-20.9-25-20.9-14.4,0-23.54,7.75-23.54,20.48,0,12.18,7.34,17.58,25.06,22.7,22.7,6.51,28.1,15.23,28.1,28.1,0,15.78-10.8,25.47-29.48,25.47-19,0-28.24-10.52-30.18-25.75Z" style="fill:#1d1d1b"/><path d="M484.37,853.43,539,688.86h13L497.38,853.43Z" style="fill:#1d1d1b"/><path d="M86.3,897c.65,4.35,3.61,6.28,7.33,6.28s6.51-2,6.51-5.79c0-3.57-1.54-5.09-7.18-6.88-6.08-1.92-8.51-3.87-8.51-8.19,0-4.51,3.3-7.63,8.87-7.63,6.23,0,8.89,3.86,9.21,7.91H99.65c-.49-3.4-2.51-5.46-6.44-5.46s-5.76,1.91-5.76,4.93S89,886.48,94.09,888c7.35,2.26,9.07,5,9.07,9.13,0,5.06-3.55,8.53-9.65,8.53S83.88,902.3,83.42,897Z" style="fill:#1d1d1b"/><path d="M169.29,890.05c0,8.67-4,15.75-12.58,15.75-8,0-12.28-6.47-12.28-15.69,0-8.08,4.13-15.39,12.61-15.39C165.07,874.72,169.29,881.13,169.29,890.05Zm-21.85,0c0,7.47,3,13.26,9.46,13.26s9.46-5.79,9.46-13.18-3-12.84-9.41-12.84C150.38,877.25,147.44,883,147.44,890Z" style="fill:#1d1d1b"/><path d="M212.69,875.15h17.09v2.53H215.53v10.87h13.35v2.51H215.53v14.3h-2.84Z" style="fill:#1d1d1b"/><path d="M279.08,877.71H270v-2.56h21.09v2.56H282v27.65h-2.9Z" style="fill:#1d1d1b"/><path d="M339,905.36l-7.63-30.21h3c3.59,14.34,5.65,22.57,6.3,26.88h0c.56-3.48,4.89-19.47,6.76-26.88h2.89c1.79,7.16,6.08,23.48,6.61,26.79h0c.89-5,5.16-20,6.85-26.79h2.9l-8.31,30.21h-3.23c-1.76-7.1-5.73-22.45-6.41-26.32h0c-.8,4.35-4.75,19.14-6.62,26.32Z" style="fill:#1d1d1b"/><path d="M409.79,895.43l-3.24,9.93h-2.91c2.75-8.17,7-20.94,10.05-30.21h3.58l10.45,30.21H424.6l-3.31-9.93Zm10.72-2.55c-2.81-8.39-4.54-13-5.09-15.21h-.08c-.88,3.64-2.52,8.27-4.8,15.21Z" style="fill:#1d1d1b"/><path d="M472.24,891.16v14.2h-2.87V875.15h10.1c5.2,0,8.83,2.58,8.83,7.65a6.81,6.81,0,0,1-5.06,7.05c3.22,1,4.66,3.49,4.66,7.74v.46a38.49,38.49,0,0,0,.43,7.31h-2.89c-.4-1.19-.49-4.27-.49-7.22v-.54c0-4.58-1.66-6.44-7-6.44Zm0-2.45h5.93c4.31,0,7.14-1.25,7.14-5.81,0-3.4-2.22-5.29-6.24-5.29h-6.83Z" style="fill:#1d1d1b"/><path d="M548.63,890.75H534.88v12.1H550l-.41,2.51H532.05V875.15H549.3v2.53H534.88v10.51h13.75Z" style="fill:#1d1d1b"/><path d="M640.7,875.15h2.86v13h15.23v-13h2.89v30.21h-2.89V890.71H643.56v14.65H640.7Z" style="fill:#1d1d1b"/><path d="M729.82,890.05c0,8.67-4,15.75-12.57,15.75-8,0-12.28-6.47-12.28-15.69,0-8.08,4.13-15.39,12.61-15.39C725.61,874.72,729.82,881.13,729.82,890.05ZM708,890c0,7.47,3,13.26,9.46,13.26s9.46-5.79,9.46-13.18-3-12.84-9.41-12.84C710.92,877.25,708,883,708,890Z" style="fill:#1d1d1b"/><path d="M775.89,875.15v19.24c0,5.29,2.07,8.85,7.65,8.85s7.52-3.39,7.52-8.89v-19.2h3v19.37c0,6.38-2.62,11.28-10.58,11.28-7.19,0-10.49-3.76-10.49-11V875.15Z" style="fill:#1d1d1b"/><path d="M839,897c.65,4.35,3.62,6.28,7.33,6.28s6.52-2,6.52-5.79c0-3.57-1.55-5.09-7.19-6.88-6.08-1.92-8.51-3.87-8.51-8.19,0-4.51,3.3-7.63,8.88-7.63,6.22,0,8.88,3.86,9.2,7.91h-2.88c-.49-3.4-2.51-5.46-6.44-5.46s-5.76,1.91-5.76,4.93,1.59,4.34,6.64,5.88c7.35,2.26,9.07,5,9.07,9.13,0,5.06-3.55,8.53-9.65,8.53s-9.63-3.38-10.09-8.71Z" style="fill:#1d1d1b"/><path d="M915.22,890.75H901.48v12.1h15.1l-.42,2.51H898.64V875.15H915.9v2.53H901.48v10.51h13.74Z" style="fill:#1d1d1b"/></svg>